<svg version="1.1" id="レイヤー_1" xmlns:x="ns_extend;" xmlns:i="ns_ai;" xmlns:graph="ns_graphs;" xmlns="http://www.w3.org/2000/svg" xmlns:xlink="http://www.w3.org/1999/xlink" x="0px" y="0px" viewBox="0 0 523.5 206" style="enable-background:new 0 0 523.5 206;" xml:space="preserve">
 <style type="text/css">
  .st0{fill:#FFFFFF;}
	.st1{fill-rule:evenodd;clip-rule:evenodd;fill:#FFFFFF;}
 </style>
 <metadata>
  <sfw xmlns="ns_sfw;">
   <slices>
   </slices>
   <sliceSourceBounds bottomLeftOrigin="true" height="206" width="523.5" x="0" y="0">
   </sliceSourceBounds>
  </sfw>
 </metadata>
 <g>
  <g>
   <path class="st0" d="M57,107.6C29.1,107.6,6.4,84.9,6.4,57C6.4,29.1,29.1,6.4,57,6.4c27.9,0,50.6,22.6,50.6,50.6c0,0,0,0,0,0
			C107.6,84.9,84.9,107.6,57,107.6 M57,0C25.5,0,0,25.5,0,57s25.5,57,57,57s57-25.5,57-57S88.5,0,57,0">
   </path>
   <path class="st0" d="M75.9,67.9c-0.8,1.4-2.5,1.9-3.9,1.1c0,0,0,0,0,0l-7-4v-3.3l2.9-1.7l6.9,4C76.2,64.8,76.7,66.5,75.9,67.9
			 M60.3,58.9L57,60.8l-3.3-1.9v-3.8l3.3-1.9l3.3,1.9V58.9z M54.2,38c-0.1-1.6,1.1-2.9,2.7-3c1.6-0.1,2.9,1.1,3,2.7
			c0,0.1,0,0.2,0,0.3v8L57,47.7L54.2,46V38z M48.9,64.9l-7,4c-1.3,0.9-3.1,0.5-3.9-0.8c-0.9-1.3-0.5-3.1,0.8-3.9
			c0.1-0.1,0.2-0.1,0.4-0.2l7-4l2.8,1.7L48.9,64.9z M98.4,80l-8.3-9.7c-0.1-0.1-0.2-0.2-0.4-0.3c-0.4-0.2-0.9-0.2-1.3,0
			c-1.3,0.6-2.8,0.6-4.1-0.2c-1.1-0.6-1.9-1.7-2.1-3l0,0c-0.6-3.2-2.6-6-5.4-7.6L73.1,57l21.1-12.2l-2.6-4.5L67.9,54l-2.8-1.6V49
			l23.7-13.7l-2.6-4.5L65.1,43v-4.2c0-3.3-1.4-6.4-3.9-8.5c-1.9-1.6-2.1-4.4-0.5-6.2c0.2-0.3,0.5-0.6,0.9-0.8
			c0.4-0.3,0.6-0.7,0.6-1.2c0-0.2,0-0.3-0.1-0.5l-4.2-12c-0.2-0.5-0.7-0.7-1.1-0.6c-0.3,0.1-0.5,0.3-0.6,0.6l-4.2,12
			c0,0.1-0.1,0.3-0.1,0.5c0,0.5,0.2,0.9,0.6,1.2l0,0c2,1.4,2.5,4.1,1.1,6.1c-0.2,0.3-0.5,0.6-0.8,0.9c-2.5,2.1-3.9,5.2-3.9,8.5V43
			L27.9,30.9l-2.6,4.5L48.9,49v3.3L46.1,54L22.4,40.3l-2.6,4.5L40.9,57l-3.7,2.1c-2.8,1.6-4.8,4.4-5.4,7.6l0,0c-0.2,1.3-1,2.4-2.1,3
			c-1.3,0.7-2.8,0.8-4.1,0.2c-0.4-0.2-0.9-0.2-1.3,0c-0.1,0.1-0.3,0.2-0.4,0.3l-8.3,9.7c-0.3,0.4-0.3,0.9,0.1,1.2
			c0.2,0.2,0.5,0.3,0.8,0.2L28.9,79c0.6-0.1,1.1-0.6,1.1-1.3c0.1-1.4,0.9-2.7,2.2-3.5c1.1-0.6,2.5-0.7,3.7-0.3
			c3.1,1.1,6.5,0.8,9.3-0.9l3.7-2.1v24.3h5.2V67.9l2.8-1.6l2.8,1.6v27.3h5.2V71l3.7,2.1c2.8,1.6,6.2,2,9.3,0.9
			c1.2-0.4,2.6-0.3,3.7,0.3c1.3,0.7,2.1,2,2.2,3.5c0,0.5,0.3,0.9,0.7,1.1c0.1,0.1,0.3,0.1,0.4,0.2l12.5,2.3c0.4,0.1,0.7-0.1,0.9-0.4
			C98.7,80.7,98.7,80.3,98.4,80">
   </path>
   <polygon class="st0" points="436.5,45.4 417.4,45.4 417.4,7.4 400.1,7.4 400.1,106.6 417.4,106.6 417.4,63 436.5,63 436.5,106.6 
			454.2,106.6 454.2,7.4 436.5,7.4 		">
   </polygon>
   <polygon class="st0" points="169,7.4 155.9,46 144,7.4 126.7,7.4 146,68.2 146,106.6 165.3,106.6 165.3,66.2 185.2,7.4 		">
   </polygon>
   <polygon class="st0" points="285.9,54.6 276.3,7.4 249.1,7.4 249.1,106.6 264.7,106.6 264.7,31.8 278,96.8 292.5,96.8 304.3,30.8 
			304.3,106.6 322.5,106.6 322.5,7.4 294.2,7.4 		">
   </polygon>
   <path class="st0" d="M484.8,67l7.4-44.4l7.2,44.4H484.8z M507.2,7.4h-26.9l-18.1,99.2h16.1l3.8-23.1h20l3.7,23.1h17.7L507.2,7.4z">
   </path>
   <path class="st0" d="M353.1,67l7.4-44.4l7.2,44.4H353.1z M348.6,7.4l-18.1,99.2h16.1l3.9-23.1h20l3.7,23.1h17.7L375.5,7.4H348.6z">
   </path>
   <path class="st0" d="M202.2,67l7.4-44.4l7.2,44.4H202.2z M197.7,7.4l-18.1,99.2h16.1l3.9-23.1h20l3.7,23.1h17.7L224.6,7.4H197.7z">
   </path>
  </g>
  <g>
   <path class="st1" d="M470.2,191.3c11.2-0.7,22.1-0.2,35.7-0.3c-11.2-1-24.8-0.4-40.6-1.2c9-0.2,19.8,0.2,25.3,0.4
			c7.1-0.2,19.9,0.2,30.2,0.3c0.1-0.3-1.9-0.1-2.7-0.2c0.6-0.6,4.7-0.1,5.5-0.7c-5.5-0.6-12.2-0.9-18.1-1.4c0.8-0.4,4.6,0.2,5.5-0.1
			c-7.9-0.9-18.5-0.5-27.5-1.3c-3.1-0.3-5.4-0.9-8.2-1c-9.6-0.6-19.5,0-30.2-0.1c-13.8,0-29.1-0.2-44.6,0.1c1.1-0.4,5.5,0,6.6-0.4
			c-12.2-0.2-24.2-0.2-38,0.1l-35.8,0.7l-40.2,1.2l-21.5,0.4l-110.1,3.9c-10.5,0.2-21.4,0.5-31.4,1.1l-24.8,2.1
			c-3.7,0.4-7.9,0.6-13.2,1.5c-5.7,0.7-11.3,1.7-16.9,3c0.5,0.2-1,0,0,0c-3.5,0.6-1.8,1.4-5.4,2.1c0.1,0.3,1.9-0.1,2.2,0
			c-1.8,0.5-4.6,1.2-1.6,1.2c-1.6,0.4,0.9,0.7,1.5,0.6c5.6-0.3,2.2,1.9,3.7,2.3c21,1.1,35.7-2.1,58.9-2.8c13.5-0.6,29.1-1.8,44-2.3
			l57.7-2.5l34-1.2c9.1-0.5,19.9-0.7,28-1c16.9-0.6,35-2,52.7-2.3l33.5-0.5c-0.1-0.2-1-0.1-1.6-0.1c5.9,0.2,10.5-0.7,19.2-0.4
			c-4.1,0.6,1.5,0.2,4.4,0.1c13.8-0.7,31.9-0.6,43.9-1.5l2.2,0.3c0.6,0,0.3-0.1,0-0.1h-0.5c-0.1-0.1,0.2-0.1,0.5-0.1
			C471.8,191.5,470.2,191.3,470.2,191.3">
   </path>
   <g>
    <path class="st0" d="M154.9,172.1c-0.1,4.6,0.2,6.3,0.5,7c-1.5,1.5-3.4,2.4-5.5,2.8c-1.2,0.1-2.5-0.3-3.4-1.2
				c-0.6-1.3-0.4-3.9-0.3-5.3c0.5-8,3.3-20.7,4.5-27.1c0.1-0.4-0.2-0.7-0.6-0.8c-0.2,0-0.4,0-0.5,0.1c-12.3,13.7-21.3,25.3-23,29.2
				c-1.7,0.9-3.5,1.7-5.4,2.2c-1.2-0.4-2.3-1.1-3.2-2.1c0-1.6-0.1-3.2-0.2-4.7c-0.6-5.8,0.2-17.3-0.5-21.4c-0.1-0.4-0.7-0.6-1.2-0.1
				c-6,10-12.7,21.5-17.7,29.4c-1,1.1-2.3,1.9-3.8,2.3c-1.3-0.1-3-3.3-2.4-4.2c4.2-6.8,4.4-6.6,11.2-17.4c6-9.7,10.2-16.5,11.5-19.5
				c0.6-1.3,2.6-1.9,4.3-2.3c1.5,0.4,2.9,1,4.2,1.7c1.5,6.1,0.1,19.1,1.1,26.1c0.1,0.8,0.7,0.8,1.2,0.3c7.3-8.5,18.6-20.5,25.8-28.6
				c1.9-1,4.1-1.6,6.2-1.6c1,0.7,2.7,2.3,3,3.8C158.4,146.3,155.1,163.4,154.9,172.1">
    </path>
    <path class="st0" d="M221.3,162.7c7.5-4.2,13.2-7.8,17.6-11.7c1.1,0,2.3,0.1,3.4,0.3c0.7,0.7,1.1,1.7,1.2,2.8
				c-2.4,2.7-13,7.5-17,9.9c-0.4,0.2-0.4,0.4-0.1,0.7c3.7,3.7,8.9,8.3,13.7,9.6c0,0.7-0.1,1.4-0.5,2.1c-1.5,0.9-4.4,2.4-6.5,2.5
				c-5.8-5.4-9.5-8.9-13.6-12.5c-0.3-0.2-0.6-0.1-0.8,0.2c0,0,0,0,0,0.1c-1.5,3.5-2.6,7.1-3.5,10.8c-1.7,1.1-3.6,1.9-5.6,2.1
				c-0.9-0.2-3.5-1-3.9-1.8c1.6-2.2,5.4-9.5,11.3-24.4c4.8-12.3,6.6-17.6,5.6-19.4c2.2-1.1,4.6-1.8,7.1-2.1c1.1,0.6,2,1.5,2.7,2.5
				c-3.9,8.3-7.1,15.6-11.9,27.5c-0.1,0.4,0.1,0.8,0.5,0.9C221,162.8,221.2,162.8,221.3,162.7">
    </path>
    <path class="st0" d="M265.8,149c4.9-0.1,10.6,0.7,11.1,3.7c0.7,4.7-9.2,11.5-21.5,9.6c-1.7,2.4-2.5,5.3-2.2,8.1
				c0.2,1.5,1.5,2.6,4,2.5c9.1-0.4,21.2-6.3,27.8-11.8c0.4,0.4,0.3,0.8-0.4,1.5c-1.2,1.3-3.8,2.9-4.1,4.4
				c-7.3,6.6-19.3,11.4-27.5,11.6c-5.1,0.2-7.3-1.6-7.7-4.7c-0.7-7.4,6.8-18.4,15.6-24.2C262.4,149.3,264.1,149,265.8,149
				 M256.3,160.4c6-0.1,14.4-3,14-6.4c-0.2-1.6-4.3-1.9-7.2-1.8C260.5,154.6,258.1,157.4,256.3,160.4">
    </path>
    <path class="st0" d="M357.7,158.2c-3.4,4.1-11.1,13.5-11.5,16.4c-1.6,1.2-3.5,2.1-5.5,2.4c-1.2-0.4-2.3-1.1-3.2-1.9
				c-1.3-5-2.2-10-2.8-15.1c-0.5-4.8-0.8-7.1-1.1-10c0-0.7-0.5-0.9-1.1-0.4c-6.4,7.1-17.6,17.6-25.7,26.8c-2.1,0.9-4.3,1.5-6.6,1.6
				c-1.7-1.2-2-3.4-2.3-6c-0.8-8.3,6.1-24.4,5.6-29.8c0-0.5,0.1-1.1,0.4-1.5c1.5-1.1,3.1-1.9,4.9-2.3c1.3,0.5,2.3,1.6,2.7,2.9
				c0.2,2.5-1.4,7.6-3,12.8s-3.2,10.6-2.9,13.9c0,0.4,0.5,0.6,0.9,0.1c9.9-8.1,20.6-20,24.4-25.6c2.1-1.2,4.5-2,6.9-2.4
				c1.1,0.4,2,1,2.9,1.8c0.3,3.2,0.5,9.8,1.3,18c0.2,2.1,0.6,4.1,1.1,6.1c0.2,0.7,0.8,0.7,1.2,0.3c6.9-8.3,17.2-20.2,23.2-27.5
				c1.3-0.7,1.6-1.5,3.2-1.8c1.1,0.2,2.1,0.8,2.6,1.8C370.8,143.9,361,154.1,357.7,158.2">
    </path>
    <path class="st0" d="M414.2,150.3c-0.3,6.3-0.6,9.6-0.3,14.3c0,0.7,0.2,1.4,0.4,2.1c0.2,0.4,0.5,0.6,0.8,0.1
				c6.6-7.1,13.8-13.7,21.5-19.5c1.5,0.1,3.8,0.3,4.9,1c-11.5,9-16.6,15-24.1,25.1c-2.2,1.3-4.6,2.2-7.1,2.5c-1.7-2.9-2.7-6.2-3-9.6
				c-0.2-3.5-0.3-7.1-0.1-10.7c0-0.9-3.1,1.8-3.6,1.2c-0.3-0.4,0.4-1.8,0.5-2.7c1.9-2,4-3.8,6.2-5.4c1.3,0.1,2.6,0.5,3.8,1
				L414.2,150.3z">
    </path>
    <path class="st0" d="M497.6,146.7c0.3,0.7,0.5,1.4,0.6,2.1c-1.2,1.3-2.8,2.2-4.5,2.6c-1.6-1.1-3.5-1.7-5.5-1.9
				c-1.1,0-2.2,0.3-3.2,0.8c-2.3,1.3-3.4,3.4-3.2,4.9c0.1,1.3,0.9,1.8,6.2,2c5.6,0.3,8.7,1.4,9,4.2c0.6,6.1-10,14.2-22.7,14.4
				c-5.3,0-7.2-0.4-7.8-2.1s0.5-4.6,3.3-8.6c1.4-0.3,2.8-0.3,4.2,0c-1,1.5-1.5,3.3-1.4,5.2c0.2,1.4,1.6,1.9,4.5,1.9
				c7-0.1,12-4.3,11.6-8.5c-0.1-1.4-1.1-1.9-6.6-2.1s-7.5-1-7.7-3.2c-0.4-4.1,8.8-13,15.4-13.2C492.4,145.5,495.1,145.9,497.6,146.7
				">
    </path>
    <path class="st0" d="M392.7,150.2c0.7-0.5,1.5-0.9,2.4-1.3c1.1,0.1,2.1,0.5,3,1.1c-3,5.7-6.3,12.7-6.5,17.9
				c0,1.1,0.5,1.6,1.6,1.7c0.7,0,1.7-0.1,3.3-1.6c0.2,0.3,0.3,0.6,0.3,0.9c-0.1,0.6,0,0.3-0.3,0.7c-0.8,1-0.1,1.5-1,2.4
				c-3.3,2.6-5.3,3.4-8,3.1c-1.3-0.1-2.4-1.1-2.7-2.4c-0.4-2.6-0.1-5.3,0.8-7.7c0.2-0.4-0.1-0.7-0.5-0.3c-6.8,7.1-14.1,11-19.2,11.2
				c-2.1-0.1-3.9-1.7-4.1-3.8c-0.5-6.2,4-14.9,15.1-21.1c2.9-1.6,6.1-2.4,9.4-2.3C388.4,148.8,390.6,149.3,392.7,150.2 M369.9,168.3
				c0.2,1.1,1.6,1.4,2.4,1.4c3.6,0,11.6-5.8,17.4-16.1c-1.2-1.4-2.9-2.1-4.7-2C380,151.6,368.5,161.4,369.9,168.3">
    </path>
    <path class="st0" d="M456.3,146.5c4.9-0.1,9.2,0.6,9.7,3.6c0.7,4.7-6.9,13.7-21.8,11.9c-1.1,1.9-1.4,4.2-0.8,6.4
				c0.5,1.7,2.1,2.8,3.8,2.6c5.2-0.1,10.3-1.5,14.9-4c0.6,0.5-0.6,1.1-0.6,1.4s0.8,0.3,0,1c-4.5,3.1-13.3,6.6-18.8,6.8
				c-4.2,0.1-6.6-1.5-6.9-4.6c-0.7-7.4,6.4-18,15.2-23.8C452.7,147,454.5,146.6,456.3,146.5 M445.4,159.8c8.6-0.4,14.1-4.9,13.8-8.3
				c-0.2-1.6-3-2.1-5.8-1.9C451.3,151.3,447.3,156.7,445.4,159.8">
    </path>
    <path class="st0" d="M200.9,172.3L200.9,172.3c-1.9,1.3-4.6,2.6-5.7,2.6c-0.8,0-1.4-0.6-1.6-1.8c-0.5-5.3,4.3-14.9,7.4-20.9
				c-0.9-0.6-2-1-3.1-1.1c-1.2,0.4-2.3,1-3.3,1.7c-1.7-0.8-3.5-1.3-5.3-1.5c-3.6,0-7.1,0.8-10.2,2.5c-12.4,6.7-17.4,17.4-16.7,23.7
				c0.2,2.2,3.3,2.8,4.6,2.8c5.3,0,13.4-4.7,19.8-11.6c0.4-0.4,1,0,0.8,0.3c-1,2.6-1.3,5.4-0.9,8.1c0.5,1.6,1.4,2.5,2.6,2.6
				c4.6,0.3,9.8-3,12.8-5l0,0c0.6-0.4,1-1.1,1.1-1.8c0.3-0.9,2.6-2.7,2.2-3.6C205.3,169.2,201.9,171.6,200.9,172.3 M173,174.1
				c-1,0.2-2-0.4-2.2-1.3c0,0,0,0,0-0.1c-0.7-6.5,8.9-18.4,16.8-18.8c1.2-0.1,3.8,1.4,4.6,2.4C186.1,167,177.4,172.3,173,174.1">
    </path>
   </g>
  </g>
 </g>
</svg>