<svg version="1.1" id="レイヤー_1" xmlns:x="ns_extend;" xmlns:i="ns_ai;" xmlns:graph="ns_graphs;" xmlns="http://www.w3.org/2000/svg" xmlns:xlink="http://www.w3.org/1999/xlink" x="0px" y="0px" viewBox="0 0 523.5 114" style="enable-background:new 0 0 523.5 114;" xml:space="preserve">
 <style type="text/css">
  .st0{fill:#4B1E78;}
 </style>
 <metadata>
  <sfw xmlns="ns_sfw;">
   <slices>
   </slices>
   <sliceSourceBounds bottomLeftOrigin="true" height="114" width="523.5" x="0" y="92">
   </sliceSourceBounds>
  </sfw>
 </metadata>
 <g>
  <g>
   <path class="st0" d="M57,107.6C29.1,107.6,6.4,84.9,6.4,57C6.4,29.1,29.1,6.4,57,6.4c27.9,0,50.6,22.6,50.6,50.6c0,0,0,0,0,0
			C107.6,84.9,84.9,107.6,57,107.6 M57,0C25.5,0,0,25.5,0,57s25.5,57,57,57s57-25.5,57-57S88.5,0,57,0">
   </path>
   <path class="st0" d="M75.9,67.9c-0.8,1.4-2.5,1.9-3.9,1.1c0,0,0,0,0,0l-7-4v-3.3l2.9-1.7l6.9,4C76.2,64.8,76.7,66.5,75.9,67.9
			 M60.3,58.9L57,60.8l-3.3-1.9v-3.8l3.3-1.9l3.3,1.9V58.9z M54.2,38c-0.1-1.6,1.1-2.9,2.7-3c1.6-0.1,2.9,1.1,3,2.7
			c0,0.1,0,0.2,0,0.3v8L57,47.7L54.2,46V38z M48.9,64.9l-7,4c-1.3,0.9-3.1,0.5-3.9-0.8c-0.9-1.3-0.5-3.1,0.8-3.9
			c0.1-0.1,0.2-0.1,0.4-0.2l7-4l2.8,1.7L48.9,64.9z M98.4,80l-8.3-9.7c-0.1-0.1-0.2-0.2-0.4-0.3c-0.4-0.2-0.9-0.2-1.3,0
			c-1.3,0.6-2.8,0.6-4.1-0.2c-1.1-0.6-1.9-1.7-2.1-3l0,0c-0.6-3.2-2.6-6-5.4-7.6L73.1,57l21.1-12.2l-2.6-4.5L67.9,54l-2.8-1.6V49
			l23.7-13.7l-2.6-4.5L65.1,43v-4.2c0-3.3-1.4-6.4-3.9-8.5c-1.9-1.6-2.1-4.4-0.5-6.2c0.2-0.3,0.5-0.6,0.9-0.8
			c0.4-0.3,0.6-0.7,0.6-1.2c0-0.2,0-0.3-0.1-0.5l-4.2-12c-0.2-0.5-0.7-0.7-1.1-0.6c-0.3,0.1-0.5,0.3-0.6,0.6l-4.2,12
			c0,0.1-0.1,0.3-0.1,0.5c0,0.5,0.2,0.9,0.6,1.2l0,0c2,1.4,2.5,4.1,1.1,6.1c-0.2,0.3-0.5,0.6-0.8,0.9c-2.5,2.1-3.9,5.2-3.9,8.5V43
			L27.9,30.9l-2.6,4.5L48.9,49v3.3L46.1,54L22.4,40.3l-2.6,4.5L40.9,57l-3.7,2.1c-2.8,1.6-4.8,4.4-5.4,7.6l0,0c-0.2,1.3-1,2.4-2.1,3
			c-1.3,0.7-2.8,0.8-4.1,0.2c-0.4-0.2-0.9-0.2-1.3,0c-0.1,0.1-0.3,0.2-0.4,0.3l-8.3,9.7c-0.3,0.4-0.3,0.9,0.1,1.2
			c0.2,0.2,0.5,0.3,0.8,0.2L28.9,79c0.6-0.1,1.1-0.6,1.1-1.3c0.1-1.4,0.9-2.7,2.2-3.5c1.1-0.6,2.5-0.7,3.7-0.3
			c3.1,1.1,6.5,0.8,9.3-0.9l3.7-2.1v24.3h5.2V67.9l2.8-1.6l2.8,1.6v27.3h5.2V71l3.7,2.1c2.8,1.6,6.2,2,9.3,0.9
			c1.2-0.4,2.6-0.3,3.7,0.3c1.3,0.7,2.1,2,2.2,3.5c0,0.5,0.3,0.9,0.7,1.1c0.1,0.1,0.3,0.1,0.4,0.2l12.5,2.3c0.4,0.1,0.7-0.1,0.9-0.4
			C98.7,80.7,98.7,80.3,98.4,80">
   </path>
   <polygon class="st0" points="436.5,45.4 417.4,45.4 417.4,7.4 400.1,7.4 400.1,106.6 417.4,106.6 417.4,63 436.5,63 436.5,106.6 
			454.2,106.6 454.2,7.4 436.5,7.4 		">
   </polygon>
   <polygon class="st0" points="169,7.4 155.9,46 144,7.4 126.7,7.4 146,68.2 146,106.6 165.3,106.6 165.3,66.2 185.2,7.4 		">
   </polygon>
   <polygon class="st0" points="285.9,54.6 276.3,7.4 249.1,7.4 249.1,106.6 264.7,106.6 264.7,31.8 278,96.8 292.5,96.8 304.3,30.8 
			304.3,106.6 322.5,106.6 322.5,7.4 294.2,7.4 		">
   </polygon>
   <path class="st0" d="M484.8,67l7.4-44.4l7.2,44.4H484.8z M507.2,7.4h-26.9l-18.1,99.2h16.1l3.8-23.1h20l3.7,23.1h17.7L507.2,7.4z">
   </path>
   <path class="st0" d="M353.1,67l7.4-44.4l7.2,44.4H353.1z M348.6,7.4l-18.1,99.2h16.1l3.9-23.1h20l3.7,23.1h17.7L375.5,7.4H348.6z">
   </path>
   <path class="st0" d="M202.2,67l7.4-44.4l7.2,44.4H202.2z M197.7,7.4l-18.1,99.2h16.1l3.9-23.1h20l3.7,23.1h17.7L224.6,7.4H197.7z">
   </path>
  </g>
 </g>
</svg>